<svg xmlns="http://www.w3.org/2000/svg" width="21" height="20"><path fill="#fff" d="M20.576 4.46l-1.204 8.912c-.184.922-1.024 1.635-1.882 1.635H6.61c-.859 0-1.696-.713-1.88-1.635L3.263 3.085c-.146-.732-.157-.976-.137-1.054H1a1 1 0 110-2h4a1 1 0 011 1 .99.99 0 01-.898.979h13.965c1.105 0 1.773 1.131 1.509 2.45zm-3.173 8.518c-.005 0-.004-.003.004-.014l1.186-8.787s.028-.2.031-.2H5.418l1.313 9zM7.246 15.987a1.874 1.874 0 110 3.748 1.874 1.874 0 010-3.748zm9 0a1.874 1.874 0 110 3.748 1.874 1.874 0 010-3.748z"/></svg>