<svg xmlns="http://www.w3.org/2000/svg" width="48" height="49"><path fill="#323232" d="M39.578 23.997c-.259.39-.879 1.047-2.127 1.047-.89 0-2.2-.38-3.256-.84.23 2.52-.273 5.392-1.576 8.344.472.953.672 2 .517 3.078-.488 3.386-4.283 5.239-8.524 5.239-4.241 0-8.018-1.853-8.48-5.239a5.162 5.162 0 01.33-2.617c-1.443-3.08-2.012-6.091-1.786-8.724-1.019.422-2.228.759-3.065.759-1.248 0-1.868-.657-2.127-1.047-.426-.646-.485-1.452-.162-2.214.812-1.912 3.593-2.743 4.75-3.012l.096-.022c-1.398-2.901-.723-7.601-.197-9.191l3.057.254c.056 1.003.766 2.88 3.436 5.01l1.585 1.092a12.81 12.81 0 012.397-.238c.818 0 1.57.089 2.289.217l1.692-1.165c2.67-2.13 3.38-4.007 3.435-5.01l3.058-.254c.528 1.6 1.207 6.342-.224 9.24l.294.067c1.157.269 3.937 1.1 4.75 3.012.323.762.265 1.568-.162 2.214zm-25.07-3.277s-2.858.663-3.36 1.845c-.503 1.183 3.154-.13 3.834-.692-.325-.473-.355-.592-.473-1.153zm3.298.068c-1.752 2.755-1.578 7.007.467 11.373l.367.781-.318.803a3.172 3.172 0 00-.208 1.61c.329 2.412 3.599 3.51 6.498 3.51 2.907 0 6.196-1.103 6.545-3.524.091-.637-.02-1.279-.33-1.905l-.416-.84.378-.857c1.878-4.251 1.97-8.371.244-11.02-1.297-1.99-3.575-3.043-6.587-3.043-3.05 0-5.346 1.077-6.64 3.112zm20.093 1.777c-.503-1.183-3.36-1.846-3.36-1.846-.12.562-.15.68-.475 1.153.681.562 4.338 1.876 3.835.693zm-18.57-6.097s-3.595-2.477-3.735-5.015c-.404 2.175-.584 5.614.705 6.983.644-.323 1.66-1.405 3.03-1.968zm13.263 1.874c1.289-1.37 1.108-4.808.705-6.983-.14 2.539-3.736 5.015-3.736 5.015 1.37.564 2.386 1.646 3.03 1.968zM24.183.798c13.09 0 23.702 10.611 23.702 23.701S37.272 48.201 24.183 48.201C11.093 48.201.482 37.59.482 24.5S11.093.798 24.183.798zm21.702 23.701c0-11.966-9.736-21.7-21.702-21.7-11.966 0-21.701 9.734-21.701 21.7 0 11.967 9.735 21.702 21.701 21.702 11.966 0 21.702-9.735 21.702-21.702z"/></svg>