<svg xmlns="http://www.w3.org/2000/svg" width="49" height="49"><path fill="#323232" d="M32.966 16.51v14.68a.81.81 0 01-.809.809H16.624a.809.809 0 01-.809-.81V16.512c0-2.291.892-4.445 2.512-6.064a8.52 8.52 0 016.064-2.512 8.52 8.52 0 016.063 2.512 8.519 8.519 0 012.512 6.064zm-1.618 4.139c-.634-.214-1.032-.656-1.346-1.004-.37-.41-.55-.593-.946-.595-.023.014-.136.092-.308.427-.173.336-.334.788-.489 1.226-.203.575-.414 1.17-.697 1.648-.424.718-.968 1.082-1.619 1.082-.65 0-1.194-.364-1.618-1.082-.283-.479-.494-1.073-.697-1.648-.155-.438-.316-.89-.488-1.226-.173-.334-.286-.413-.31-.427-.394.002-.576.185-.945.595-.43.477-1.018 1.131-2.155 1.131-1.136 0-1.725-.654-2.154-1.13a11.44 11.44 0 00-.143-.157V30.38h13.915zM22.34 32.797h4.099v6.164a2.05 2.05 0 01-4.099 0zM24.5.798c13.089 0 23.7 10.611 23.7 23.701S37.59 48.201 24.5 48.201.798 37.59.798 24.5 11.41.798 24.5.798zm21.7 23.701c0-11.966-9.735-21.7-21.701-21.7-11.967 0-21.701 9.734-21.701 21.7 0 11.967 9.734 21.702 21.7 21.702 11.967 0 21.702-9.735 21.702-21.702z"/></svg>