<svg xmlns="http://www.w3.org/2000/svg" width="32" height="32"><path fill="#fff" d="M15.865.228c8.666 0 15.691 7.025 15.691 15.692 0 8.666-7.025 15.691-15.691 15.691S.173 24.586.173 15.92C.173 7.253 7.2.228 15.865.228zm6.271 23.61c.964 0 1.745-.781 1.745-1.745V9.783c0-.964-.781-1.746-1.745-1.746H9.81c-.964 0-1.745.782-1.745 1.745v12.311c0 .964.78 1.745 1.744 1.745zm.005-9.101v6.786a.611.611 0 01-.612.611H10.464a.611.611 0 01-.611-.611v-6.786h1.38a4.921 4.921 0 109.529 0c.882.002 1.379 0 1.379 0zm-6.143-1.605c1.567 0 3.066 1.144 3.066 2.838 0 1.693-1.499 2.839-3.066 2.839a2.839 2.839 0 010-5.677zm3.697-3.316h1.865a.61.61 0 01.611.611v1.865a.611.611 0 01-.611.61h-1.865a.611.611 0 01-.611-.61v-1.865a.61.61 0 01.611-.611z" opacity=".8"/></svg>