<svg xmlns="http://www.w3.org/2000/svg" width="49" height="49" viewBox="0 0 49 49"><g><g><path fill="#323232" d="M24.437 40.625s-22.24-10.188 0-32.75c22.24 22.562 0 32.75 0 32.75zm7.516-17.188L25.416 27.6l-.02 3.681 6.894-4.408c.046-1.111-.078-2.259-.337-3.435zm-15.39 3.19l6.833 4.485v-3.621l-6.453-4.153c-.255 1.123-.402 2.224-.38 3.29zm6.833-1.515v-3.636l-4.4-3.379a22.02 22.02 0 0 0-1.464 3.24zm0-6.088v-7.047c-1.305 1.507-2.426 2.98-3.356 4.42zm2 .272l3.63-2.598c-.988-1.564-2.198-3.17-3.63-4.818zm.02 2.304l-.02 3.68 5.98-3.85a21.7 21.7 0 0 0-1.336-3.012zm6.443 7.899l-6.443 4.1-.02 4.165c2.07-1.367 5.305-4.117 6.463-8.265zm-8.463 8.197v-4.205l-6.417-4.131c1.106 4.143 4.316 6.926 6.417 8.336zM24.5.798C37.589.798 48.2 11.41 48.2 24.5S37.59 48.201 24.5 48.201C11.41 48.201.798 37.59.798 24.5.798 11.41 11.41.8 24.5.8zM46.2 24.5c0-11.966-9.735-21.7-21.701-21.7-11.967 0-21.701 9.734-21.701 21.7 0 11.967 9.734 21.702 21.7 21.702 11.967 0 21.702-9.735 21.702-21.702z"/></g></g></svg>