<svg xmlns="http://www.w3.org/2000/svg" width="108" height="38"><path fill="#fff" d="M44.6 27.283c.191 0 .381-.053.554-.104v1.33c-.346.139-.76.208-1.175.208-.76 0-1.366-.294-1.66-.968-.812.657-1.831 1.072-3.128 1.072-1.503 0-2.903-.83-2.903-2.54 0-2.126 1.97-2.783 3.698-2.783.71 0 1.504.103 2.16.242v-.294c0-1.037-.76-1.763-2.177-1.763a7.385 7.385 0 00-2.99.64v-1.694c.657-.225 1.85-.553 3.18-.553 2.35 0 3.837 1.123 3.837 3.63v2.972c0 .466.277.605.605.605.328 0 0 0 0 0zm-6.411-1.124c0 .812.726 1.227 1.555 1.227.882 0 1.746-.328 2.403-.985v-1.4c-.501-.103-1.21-.207-1.798-.207-1.054 0-2.16.328-2.16 1.365zm12.305-6.083c.933 0 1.832.207 2.558.64v1.693c-.605-.432-1.452-.691-2.299-.691-1.468 0-2.955.777-2.955 2.73 0 1.884 1.434 2.73 2.92 2.73a4.99 4.99 0 002.42-.638v1.71c-.795.38-1.693.57-2.748.57-2.212 0-4.476-1.347-4.476-4.302 0-3.094 2.368-4.442 4.58-4.442m12.115 7.207c.19 0 .38-.053.553-.104v1.33a3.21 3.21 0 01-1.175.208c-.76 0-1.365-.294-1.66-.968-.811.657-1.831 1.072-3.127 1.072-1.504 0-2.904-.83-2.904-2.54 0-2.126 1.97-2.783 3.699-2.783.708 0 1.503.103 2.16.242v-.294c0-1.037-.76-1.763-2.178-1.763a7.386 7.386 0 00-2.99.64v-1.694c.658-.225 1.85-.553 3.18-.553 2.35 0 3.837 1.123 3.837 3.63v2.972c0 .466.277.605.605.605.328 0 0 0 0 0zm-6.412-1.124c0 .812.726 1.227 1.556 1.227.881 0 1.745-.328 2.402-.985v-1.4c-.501-.103-1.21-.207-1.797-.207-1.055 0-2.16.328-2.16 1.365zm16.678-9.66v12.097h-1.66v-1.313c-.639.812-1.624 1.538-3.179 1.538-2.506 0-4.113-1.988-4.113-4.373 0-2.385 1.607-4.372 4.113-4.372 1.452 0 2.42.64 2.99 1.296v-4.874zm-4.51 5.201c-1.487 0-2.576 1.124-2.576 2.748 0 1.625 1.089 2.748 2.575 2.748 1.297 0 2.247-.83 2.644-1.745v-2.023c-.397-.898-1.347-1.728-2.644-1.728-1.296 0 0 0 0 0zm10.507-1.624c3.301 0 4.442 2.661 3.906 5.063h-6.239c.208 1.487 1.66 2.109 3.18 2.109a6.076 6.076 0 002.627-.588v1.59c-.76.364-1.815.57-2.973.57-2.54 0-4.7-1.45-4.7-4.372 0-3.007 2.28-4.372 4.2-4.372 1.917 0 0 0 0 0zm.087 1.538c-1.245 0-2.368.743-2.437 2.143h4.597c.104-.726-.346-2.143-2.16-2.143-1.815 0 0 0 0 0zm5.703 6.982v-8.295h1.642v1.036c.45-.5 1.417-1.261 2.765-1.261 1.244 0 2.108.518 2.592 1.33.726-.725 1.694-1.33 2.904-1.33 2.194 0 3.145 1.624 3.145 3.335v5.185h-1.85v-5.133c0-1.072-.639-1.745-1.641-1.745-.916 0-1.625.604-2.056 1.123.017.19.034.38.034.57v5.185h-1.85v-5.133c0-1.072-.639-1.745-1.641-1.745s-1.763.725-2.195 1.279v5.599zm21.206-8.296h1.935l-3.888 9.42c-.9 2.16-2.074 2.886-3.336 2.886-.362 0-.725-.052-1.089-.138v-1.573c.277.086.57.12.847.12.899 0 1.573-.64 2.057-1.935l.173-.415-3.94-8.365h1.97l2.8 6.257zM38.734 1.974V6.69a3.776 3.776 0 012.678-1.14c2.091 0 3.422 1.417 3.422 3.387v5.133h-1.849V9.18c0-1.349-.83-1.988-1.935-1.988-1.055 0-1.85.708-2.316 1.382v5.496h-1.85V1.974zm11.164.846v2.955h3.007V7.4h-3.007v3.802c0 1.09.501 1.452 1.573 1.452.605 0 1.158-.121 1.676-.328v1.59c-.622.224-1.417.363-2.229.363-1.608 0-2.852-.795-2.852-2.731V7.4H46.58V5.775h1.486V3.27zm5.374 11.251V5.775h1.642v1.038c.45-.502 1.417-1.262 2.765-1.262 1.245 0 2.109.518 2.593 1.33.725-.725 1.693-1.33 2.903-1.33 2.195 0 3.146 1.624 3.146 3.335v5.185h-1.85V8.938c0-1.071-.64-1.745-1.642-1.745-.915 0-1.624.605-2.056 1.123.017.19.035.38.035.57v5.185h-1.85V8.938c0-1.071-.64-1.745-1.642-1.745-1.002 0-1.763.726-2.195 1.279v5.6zM71.026 1.974h1.849V14.07h-1.85zm-41.87.075v26.548L14.67 37.215.187 28.597V2.049L14.671.531l.152.016zM27.26 16.455l-3.884 2.32v4.288l.01-.007v1.319L14.67 29.59l-8.633-5.189.012-1.312 8.631 5.134-.021-1.388-8.634-5.189.013-1.313 8.6 5.118-.022-1.352-12.535-7.46v10.88l12.59 7.491 12.589-7.49zM14.6 7.671L2.108 15.177l12.473 7.415 2.133-1.28-2.094-1.234.013-1.312 3.19 1.88.024-.015.997-.667-4.224-2.511.013-1.313 5.35 3.183.921-.542.14-.083.057-.033-6.48-3.855.012-1.312 7.582 4.51 1.59-.936 3.444-2.03zm12.66-3.915l-12.59-1.32-12.59 1.32v9.958L14.6 6.261V6.26h.002v.001l12.658 7.462z"/></svg>