<svg xmlns="http://www.w3.org/2000/svg" width="154" height="64"><path fill="#fff" d="M153.827 52.85c-.45 6.77-5.747 11.1-12.885 11.1-6.872 0-10.002-3.162-10.002-6.1 0-1.621 1.247-2.834 2.48-3.194.181-.041.29-.055.385-.055.284 0 .445.129.531.237.21.264.141.568.052.951-.025.109-.054.234-.083.378-.181 1.02-.18 2.515.873 3.772 1.161 1.387 3.36 2.12 6.357 2.12 4.543 0 9.617-3.597 9.894-9.407.203-4.773-2.147-8.119-6.055-8.758a9.21 9.21 0 01.605 2.766c.17 2.587-.486 4.85-1.849 6.373-1.104 1.234-2.61 1.928-4.354 2.007-1.47.074-2.66-.424-3.51-1.394-.944-1.078-1.353-2.692-1.123-4.43.437-3.403 2.66-6.05 5.887-7.092-1.645-1.313-4.024-2.082-6.81-2.184-3.242-.13-6.064.543-8.432 1.97-1.207 7.44-3.689 16.015-6.778 16.015-.638 0-1.234-.395-1.677-1.114-1.042-1.694-1.26-5.306.722-9.24 1.48-2.913 3.18-5.055 5.192-6.54.256-2.357.447-4.803.566-7.296-.987 1.26-2.156 1.97-3.352 2.005-1.004 1.397-2.295 2.164-3.656 2.164-1.18 0-2.27-.486-3.153-1.405-1.316-1.372-1.987-3.498-1.886-5.987.168-4.01 1.809-7.015 4.39-8.038.528-.218 1.049-.064 1.25.34.565-.653 1.266-1.106 2.111-1.258.732-.13 1.418.166 1.986.819 1.185 1.358 1.643 3.973 1.227 6.995-.24 1.643-.612 3.068-1.113 4.254.934-.686 1.84-2.452 2.34-4.697.015-1.496.01-2.897-.017-4.281-.03-1.055.313-1.637.606-1.94.297-.304.69-.48 1.081-.48 1.084 0 1.137.627 1.137 1.732 0 .442.007.835.015 1.314.004.23.008.483.011.77 1.206-2.613 2.748-4.056 4.394-4.056.735 0 1.407.308 1.944.867 1.104 1.152 1.617 3.438 1.484 6.563-.28 5.664-3.5 8.248-6.567 8.248-.577 0-1.117-.003-1.635-.21-.057.678-.126 1.555-.21 2.224 2.473-1.057 5.341-1.058 8.836-.831 4.064.246 7.084 2.4 8.977 4.4h.236c2.775 0 5.261.225 7.003 2.08 1.858 1.979 2.772 4.393 2.575 7.523zm-38.854-22.807c-.1 2.02.382 3.792 1.286 4.741.257.27.671.592 1.183.592.28 0 .571-.088.858-.255-1.382-.895-2.366-2.73-2.586-4.92-.193-1.844-.007-3.813.58-5.412-.739 1.07-1.227 2.961-1.32 5.254zm4.96-5.112c-.054-.058-.132-.126-.203-.126-.849.244-1.915 2.415-1.79 4.938.062 1.413.556 3.196 1.727 3.916.432-.79.888-2.086 1.008-4.131.157-2.449-.274-4.099-.742-4.597zm11.389 5.143c.212-3.24-.2-4.915-.657-5.4-.123-.133-.21-.133-.244-.133-.64 0-2.695 2.878-3.748 9.673l-.064 1.027c.346.265.795.39 1.394.39 1.83 0 3.07-2.078 3.319-5.557zm-8.576 14.393a15.335 15.335 0 00-2.143 3.214c-1.78 3.56-1.704 6.02-1.219 6.806.088.142.183.22.28.232.584-.284 2.043-3.616 3.082-10.252zm20.878 2.765c-.075-1.258-.415-2.38-1.013-3.342-2.666.507-4.55 2.398-4.95 5.001-.218 1.304-.01 2.412.583 3.126.449.54 1.088.821 1.9.837l.107.002c.768 0 1.472-.317 2.038-.916.964-1.025 1.452-2.74 1.335-4.708zm-31.249-8.429c-.045.22-.271.773-1.482.624-2.446-.264-3.577-3.232-3.452-9.075.03-1.42.152-2.6.25-3.55.09-.882.193-1.88.06-2.078-.727.038-3.546 3.81-4.576 10.633-.049 1.73-1.027 2.208-1.596 2.208-1.038 0-1.222-.443-1.222-1.689 0-1.457.016-1.994.046-3.075.02-.716.047-1.67.08-3.298.075-2.74.25-5.39.522-7.89-1.378.234-2.875.249-4.374.04-4.264-.569-5.692-3.311-5.606-5.689.104-1.512 1.426-2.373 2.288-2.588a1.82 1.82 0 01.389-.052c.31 0 .47.159.54.253.206.285.108.583-.04 1.034l-.08.25a3.933 3.933 0 00.063 2.18c.123.274.387.66.833.66.309 0 .668-.184.984-.504.67-.678 1.062-1.828 1.047-3.075-.04-2.73-1.606-4.333-4.409-4.512a8.516 8.516 0 00-.539-.018c-2.528 0-5.252 1.275-5.637 4.125-.488 3.727 2.647 5.625 5.965 7.635l.375.227c3.42 2.11 7.043 4.754 6.772 9.45-.306 5.01-4.763 8.787-10.37 8.787-.694 0-1.398-.06-2.09-.179-6.885-1.188-9.051-6.531-8.814-10.745.106-1.517.587-3.64 2.284-5.178.597-.545 2.43-1.143 3.02-1.227.725-.106.911.207.987.381.187.43-.133.86-.507 1.26-1.964 1.923-2.827 3.435-3.093 5.41-.239 1.889.27 3.717 1.432 5.144 1.21 1.485 3.055 2.395 5.196 2.563 4.209.327 8.159-2.197 8.542-5.332.472-3.82-2.456-6.129-5.763-8.347l-.694-.457c-3.46-2.274-7.038-4.624-6.653-8.659.377-4.586 5.078-6.99 9.529-6.99.12 0 .242.001.36.005 2.282.085 4.101.812 5.264 2.1 1.043 1.158 1.532 2.714 1.413 4.499-.119 2.368-1.269 4.465-2.914 5.475.28.101.578.18.89.236a8.744 8.744 0 003.616-.078c1.204-8.835 3.717-14.522 6.433-14.522.62 0 1.209.407 1.662 1.147 1.173 1.913 1.408 5.72-.411 9.294-1.198 2.397-2.92 4.133-5.118 5.162a62.98 62.98 0 00-.461 6.926c1.437-3.125 3.5-5.731 5.643-5.731.511 0 .93.172 1.243.51.892.965.773 3.108.485 6.815-.534 6.513.196 8.186.902 8.443.86.381.819.909.786 1.062zm-5.814-23.384c1.457-2.914 1.273-5.64.816-6.673-.134-.304-.258-.399-.292-.409-.545.246-2.014 3.81-2.989 10.085 1.009-.737 1.835-1.744 2.465-3.003zm-28.25 7.64c.006 0-.336 3.471-.796 6.653-2.93 21.904-5.728 24.439-7.579 24.439-.624 0-1.176-.316-1.596-.911-1.087-1.544-1.112-4.671-.062-7.606a29.31 29.31 0 015.63-9.629l.03-.277c-.87 1.337-1.832 2.049-2.814 2.049-.987 0-2.657-.494-3.58-3.538-1.5 2.617-3.475 4.09-5.54 4.09-2.077 0-3.905-1.294-4.914-3.39-.8 1.927-1.91 3.771-3.23 3.771-1.081 0-1.912-1.272-2.296-3.415-.951 1.591-2.08 2.503-3.258 2.607a2.091 2.091 0 01-.17.007c-1.236 0-2.666-1.069-3.394-3.127-1.215 2.203-2.594 3.44-3.876 3.44-1.685 0-3.319-2.004-4.281-5.128-1.074 2.608-2.732 5.107-4.574 5.107-.703 0-1.424-.37-2.085-1.07-1.52-1.611-3.174-5.625-2.826-11.634.517-8.31 3.554-19.898 7.328-19.898.286 0 .701.094 1.057.541 1.293 1.628.768 7.124-.018 10.508-1.055 4.307-3.351 9.391-5.112 12.272.283 4.745 1.406 6.881 2.123 6.881.766 0 2.431-2.667 3.315-6.853a27.242 27.242 0 01-.058-4.036c.542-8.715 3.722-20.869 7.67-20.869.295 0 .723.097 1.09.56 1.352 1.702.8 7.462-.024 11.009-1.107 4.521-3.52 9.862-5.368 12.885.297 5.003 1.491 7.255 2.253 7.255.576 0 1.923-1.64 2.982-5.159.655-6.058 4.193-8.196 7.02-8.196 1.535 0 2.402.577 2.86 1.061.583.618.874 1.47.82 2.396-.13 1.005-1.649 1.89-2.4 2.031-.54.115-.805-.102-.896-.233-.222-.32-.095-.662.116-1.23l.05-.135c.278-.898.306-1.525.076-1.838-.162-.22-.501-.332-1.007-.332-1.654 0-3.04 2.295-3.45 5.711-.313 2.543.263 4.513.93 5.268.158.178.319.28.44.28.814 0 1.926-1.622 2.478-4.721l.025-.316c.02-.274.04-.53.102-.873.188-.974 1.313-1.416 2.279-1.416.42 0 .703.091.865.276l.15.173-.015.279c-.985 5.169-.671 7.092-.433 7.49.287-.26 1.015-1.47 1.901-4.94a12.534 12.534 0 01-.004-.94c.252-5.043 2.891-8.84 6.141-8.84.911 0 1.66.31 2.228.921 1.12 1.21 1.07 3.129 1.028 3.689-.132.998-1.654 1.798-2.4 1.938-.612.135-.815-.087-.904-.215-.204-.296-.088-.604.088-1.071l.085-.227c.38-1.07.556-2.458.154-3.028-.087-.123-.25-.286-.66-.286-1.271 0-2.392 2.901-2.554 6.605-.074 2.179.481 4.102 1.485 5.14.498.515 1.088.787 1.705.787 2.396 0 3.725-3.08 4.317-4.984-.144-1.94-.08-4.237.19-6.827.13-1.133 1.578-1.553 2.46-1.553.378 0 .624.08.775.255l.15.173-.017.271c-.842 6.682-.727 10.688.34 11.9.206.232.44.34.734.34.822 0 2.371-2.895 3.025-8.13.092-1.386.22-2.687.342-3.452.126-1.096 1.556-1.511 2.427-1.511.407 0 .67.092.823.288l.15.192zM33.18 16.753c.981-3.774.93-6.969.64-7.847-1.034 1.39-3.09 9.68-3.45 15.845 1.149-2.629 2.255-5.748 2.81-7.998zm8.938-1.017c1.052-4.048.977-7.436.656-8.3-1.088 1.36-3.303 10.257-3.662 16.827 1.226-2.789 2.415-6.13 3.006-8.527zm28.415 30.028c-.983 2.645-.834 4.303-.368 4.973.12.174.24.243.31.25.564-.227 1.79-3.454 2.905-11.133a35.709 35.709 0 00-2.847 5.91zm-8.737-1.136c.023.595-.137 1.457-1.029 2.182-.893.747-2.355 1.112-4.466 1.112-3.669 0-8.714-1.073-14.055-2.21-.98-.209-1.964-.419-2.939-.62-6.472-1.322-11.961-2.098-16.325-2.306-1.581 5.356-3.827 8.124-7.048 8.7a5.96 5.96 0 01-.968.08c-2.101 0-4.15-1.085-5.218-2.765-.863-1.355-.962-2.905-.28-4.364 1.182-2.63 4.497-3.857 10.427-3.857.348 0 .702.004 1.064.012.327-1.412.598-2.993.823-4.789-1.558 1.617-3.541 2.519-5.82 2.626l-.3.005c-2.537 0-4.752-.976-6.409-2.821-2.418-2.696-3.495-7.091-2.956-12.06.217-1.997.628-3.846 1.224-5.506-2.488-.592-4.532-1.867-5.665-3.549C.852 13.008.543 11.251.938 9.277 2.251 2.713 10.674.675 13.594.675c.518 0 .895.057 1.152.172.377.18 1.357.645 1.194 1.366-.093.413-.527.66-1.163.66-.312 0-.642-.061-.929-.17-.044-.017-.214-.07-.626-.07-2.142 0-8.658 1.602-9.576 6.507-.635 3.348 1.87 5.822 4.78 6.645 2.574-5.46 7.165-9.342 11.789-9.939 2.233-.3 4.05.296 4.95 1.636.716 1.067.787 2.507.195 3.949-1.536 3.77-7.85 6.777-14.472 6.93a25.262 25.262 0 00-1.078 4.793c-.58 4.72.25 8.866 2.215 11.088 1.081 1.222 2.454 1.841 4.082 1.842.092 0 .184-.002.277-.007 4.15-.202 5.55-4.45 6.016-6.963l.132-2.548c.078-2.123 1.386-2.288 1.785-2.288.317 0 1.22.133 1.22.727-.455 6.587-1.118 11.717-2.024 15.684 4.964.345 11.007 1.304 16.306 2.207 4.403.742 9.414 1.5 13.18 1.5 3.223 0 5.159-.546 5.755-1.622.12-.204.192-.359.245-.473.103-.223.26-.563.662-.563.246 0 .433.14.67.318.847.586 1.427 1.6 1.465 2.572zm-41.39-1.854c-5.089.084-6.813 1.12-7.354 1.998-.634 1.045-.719 2.143-.23 3.01.456.811 1.327 1.296 2.33 1.296.36 0 .727-.064 1.091-.19 1.72-.617 3.12-2.673 4.162-6.114zm-8.623-26.708c3.954-.314 8.695-2.295 10.004-5.04.4-.897.446-1.706.12-2.21-.331-.51-.997-.617-1.497-.617-.256 0-.537.028-.836.082-2.767.527-5.836 3.616-7.791 7.785z"/></svg>