<svg xmlns="http://www.w3.org/2000/svg" width="79" height="140"><path fill="#e84d37" d="M62.534 75.848c.24 0 .477-.006.714-.015L41.881 136.71c-.609 1.734-1.41 2.6-2.212 2.6-.802 0-1.604-.866-2.212-2.6L16.06 75.75a15.927 15.927 0 005.609-1.695c.6.68 1.247 1.31 1.932 1.89l.041.04.004-.003a18.763 18.763 0 002.409 1.72l-.348.348 3.277 3.277 1.65-1.648c1.137.319 2.308.532 3.5.629l-3.085 3.085 3.278 3.277 3.277-3.277-3.056-3.057a18.475 18.475 0 003.943-.187l1.178 1.178 1.945-1.945a18.532 18.532 0 004.537-2.274 18.727 18.727 0 005.024-5.122c.539.417 1.098.802 1.675 1.154l2.845 2.845 1.05-1.05c1.846.6 3.795.913 5.79.913zM47.076 78.05l3.277 3.277 3.278-3.277-3.278-3.277zm-5.342 5.343l3.277 3.277 3.278-3.277-3.278-3.278zm-2.065 19.303l3.277-3.277-3.277-3.278-3.278 3.278zm0 4.13l-3.278 3.277 3.278 3.278 3.277-3.278zm5.342-9.472l3.277-3.278-3.277-3.277-3.277 3.277zm-8.62-8.62l3.278 3.278 3.277-3.278-3.277-3.277zM34.327 90.8l-3.278 3.277 3.278 3.278 3.277-3.278zm-9.308-5.507l1.9-1.9-3.277-3.277-.326.325zm1.49 4.245l2.475 2.475 3.278-3.278-3.278-3.277-2.892 2.892zm4.062 11.573l1.69-1.691-3.277-3.278-.116.116zm3.756 6.929l3.277-3.278-3.277-3.277-2.683 2.682.644 1.833zm1.796 8.888l1.481-1.482-3.083-3.083zm6.019 3.056l-2.473-2.473-2.473 2.473 2.473 7.046zm2.675-7.62l-3.083 3.082 1.48 1.482zm2.877-8.197l-2.683-2.682-3.277 3.277 3.277 3.278L47.05 106zm2.776-7.908l-.117-.117-3.277 3.278 1.69 1.69zm2.775-7.909l-2.892-2.892-3.277 3.277 3.277 3.278 2.476-2.475zm2.776-7.908l-.326-.326-3.277 3.278 1.9 1.9zm23.095-23.195c0 9.151-7.445 16.596-16.596 16.596a16.482 16.482 0 01-11.51-4.637 35.05 35.05 0 01-.669.219 16.58 16.58 0 01-5.34 6.03 16.506 16.506 0 01-9.387 2.908c-5.416 0-10.414-2.66-13.484-6.923a13.959 13.959 0 01-7.879 2.403C6.5 73.842.192 67.535.192 59.783a14.08 14.08 0 016.425-11.806A34.968 34.968 0 014.463 35.82c0-9.414 3.665-18.264 10.321-24.92C21.441 4.244 30.291.578 39.704.578c9.413 0 18.263 3.666 24.92 10.322 6.656 6.656 10.321 15.506 10.321 24.92 0 3.124-.406 6.207-1.211 9.191a16.597 16.597 0 015.382 12.235zm-6.287 0c0-3.405-1.681-6.589-4.497-8.516a3.143 3.143 0 01-1.201-3.603 28.908 28.908 0 001.527-9.307c0-7.734-3.012-15.006-8.48-20.474-5.47-5.469-12.74-8.48-20.474-8.48s-15.005 3.011-20.474 8.48c-5.469 5.468-8.48 12.74-8.48 20.474 0 4.306.923 8.45 2.745 12.319a3.143 3.143 0 01-1.807 4.307 7.78 7.78 0 00-5.209 7.337c0 4.285 3.487 7.772 7.772 7.772a7.718 7.718 0 006.206-3.094 3.144 3.144 0 015.463.822 10.342 10.342 0 009.694 6.792 10.27 10.27 0 009.56-6.445 3.144 3.144 0 012.095-1.856 28.893 28.893 0 003.442-1.167 3.143 3.143 0 013.675.973 10.255 10.255 0 008.134 3.975c5.684 0 10.309-4.625 10.309-10.31z"/></svg>