<svg xmlns="http://www.w3.org/2000/svg">
<symbol id="cart" viewBox="0 0 100 100"><path fill="#fff" d="M20.576 4.46l-1.204 8.912c-.184.922-1.024 1.635-1.882 1.635H6.61c-.859 0-1.696-.713-1.88-1.635L3.263 3.085c-.146-.732-.157-.976-.137-1.054H1a1 1 0 110-2h4a1 1 0 011 1 .99.99 0 01-.898.979h13.965c1.105 0 1.773 1.131 1.509 2.45zm-3.173 8.518c-.005 0-.004-.003.004-.014l1.186-8.787s.028-.2.031-.2H5.418l1.313 9zM7.246 15.987a1.874 1.874 0 110 3.748 1.874 1.874 0 010-3.748zm9 0a1.874 1.874 0 110 3.748 1.874 1.874 0 010-3.748z"/></symbol>
<symbol id="exit" viewBox="0 0 100 100"><path fill="#fff" d="M3 3.969v-.96a3 3 0 013-3h11.059a3 3 0 013 3v12.976a3 3 0 01-3 3H5.999a3 3 0 01-3-3V15h2v2h13V2H5v1.969zM-.005 6.9h6.03V4.158l7.026 5.3-7.027 5.3v-2.743h-6.03z"/></symbol>
<symbol id="fb" viewBox="0 0 100 100"><path fill="#fff" d="M15.865.228c8.666 0 15.691 7.025 15.691 15.692 0 8.666-7.025 15.691-15.691 15.691C7.198 31.611.173 24.586.173 15.92.173 7.253 7.198.228 15.865.228zm.773 24.99v-9.292h2.743l.285-3.089h-3.028l.005-1.856c0-.894.085-1.256 1.367-1.256h1.764V6.296h-2.792c-3.294 0-4.082 1.546-4.082 4.343v2.198h-1.89v3.09h1.89v9.29z" opacity=".8"/></symbol>
<symbol id="heart" viewBox="0 0 100 100"><path fill="#f7f8f8" d="M14.89 4.508c0 4.487-6.856 8.009-7.265 8.215C7.216 12.517.359 8.995.359 4.508c0-5.098 5.434-5.926 7.266-1.775C9.456-1.418 14.89-.59 14.89 4.508z"/></symbol>
<symbol id="icon_ice" viewBox="0 0 100 100"><path fill="#323232" d="M32.966 16.51v14.68a.81.81 0 01-.809.809H16.624a.809.809 0 01-.809-.81V16.512c0-2.291.892-4.445 2.512-6.064a8.52 8.52 0 016.064-2.512 8.52 8.52 0 016.063 2.512 8.519 8.519 0 012.512 6.064zm-1.618 4.139c-.634-.214-1.032-.656-1.346-1.004-.37-.41-.55-.593-.946-.595-.023.014-.136.092-.308.427-.173.336-.334.788-.489 1.226-.203.575-.414 1.17-.697 1.648-.424.718-.968 1.082-1.619 1.082-.65 0-1.194-.364-1.618-1.082-.283-.479-.494-1.073-.697-1.648-.155-.438-.316-.89-.488-1.226-.173-.334-.286-.413-.31-.427-.394.002-.576.185-.945.595-.43.477-1.018 1.131-2.155 1.131-1.136 0-1.725-.654-2.154-1.13a11.44 11.44 0 00-.143-.157V30.38h13.915zM22.34 32.797h4.099v6.164a2.05 2.05 0 01-4.099 0zM24.5.798c13.089 0 23.7 10.611 23.7 23.701S37.59 48.201 24.5 48.201.798 37.59.798 24.5 11.41.798 24.5.798zm21.7 23.701c0-11.966-9.735-21.7-21.701-21.7-11.967 0-21.701 9.734-21.701 21.7 0 11.967 9.734 21.702 21.7 21.702 11.967 0 21.702-9.735 21.702-21.702z"/></symbol>
<symbol id="icon_leaf" viewBox="0 0 100 100"><path fill="#323232" d="M24.437 40.625s-22.24-10.188 0-32.75c22.24 22.562 0 32.75 0 32.75zm7.516-17.188L25.416 27.6l-.02 3.681 6.894-4.408c.046-1.111-.078-2.259-.337-3.435zm-15.39 3.19l6.833 4.485v-3.621l-6.453-4.153c-.255 1.123-.402 2.224-.38 3.29zm6.833-1.515v-3.636l-4.4-3.379a22.02 22.02 0 00-1.464 3.24zm0-6.088v-7.047c-1.305 1.507-2.426 2.98-3.356 4.42zm2 .272l3.63-2.598c-.988-1.564-2.198-3.17-3.63-4.818zm.02 2.304l-.02 3.68 5.98-3.85a21.7 21.7 0 00-1.336-3.012zm6.443 7.899l-6.443 4.1-.02 4.165c2.07-1.367 5.305-4.117 6.463-8.265zm-8.463 8.197v-4.205l-6.417-4.131c1.106 4.143 4.316 6.926 6.417 8.336zM24.5.798C37.589.798 48.2 11.41 48.2 24.5S37.59 48.201 24.5 48.201.798 37.59.798 24.5 11.41.8 24.5.8zM46.2 24.5c0-11.966-9.735-21.7-21.701-21.7-11.967 0-21.701 9.734-21.701 21.7 0 11.967 9.734 21.702 21.7 21.702 11.967 0 21.702-9.735 21.702-21.702z"/></symbol>
<symbol id="icon_moo" viewBox="0 0 100 100"><path fill="#323232" d="M39.578 23.997c-.259.39-.879 1.047-2.127 1.047-.89 0-2.2-.38-3.256-.84.23 2.52-.273 5.392-1.576 8.344.472.953.672 2 .517 3.078-.488 3.386-4.283 5.239-8.524 5.239-4.241 0-8.018-1.853-8.48-5.239a5.162 5.162 0 01.33-2.617c-1.443-3.08-2.012-6.091-1.786-8.724-1.019.422-2.228.759-3.065.759-1.248 0-1.868-.657-2.127-1.047-.426-.646-.485-1.452-.162-2.214.812-1.912 3.593-2.743 4.75-3.012l.096-.022c-1.398-2.901-.723-7.601-.197-9.191l3.057.254c.056 1.003.766 2.88 3.436 5.01l1.585 1.092a12.81 12.81 0 012.397-.238c.818 0 1.57.089 2.289.217l1.692-1.165c2.67-2.13 3.38-4.007 3.435-5.01l3.058-.254c.528 1.6 1.207 6.342-.224 9.24l.294.067c1.157.269 3.937 1.1 4.75 3.012.323.762.265 1.568-.162 2.214zm-25.07-3.277s-2.858.663-3.36 1.845c-.503 1.183 3.154-.13 3.834-.692-.325-.473-.355-.592-.473-1.153zm3.298.068c-1.752 2.755-1.578 7.007.467 11.373l.367.781-.318.803a3.172 3.172 0 00-.208 1.61c.329 2.412 3.599 3.51 6.498 3.51 2.907 0 6.196-1.103 6.545-3.524.091-.637-.02-1.279-.33-1.905l-.416-.84.378-.857c1.878-4.251 1.97-8.371.244-11.02-1.297-1.99-3.575-3.043-6.587-3.043-3.05 0-5.346 1.077-6.64 3.112zm20.093 1.777c-.503-1.183-3.36-1.846-3.36-1.846-.12.562-.15.68-.475 1.153.681.562 4.338 1.876 3.835.693zm-18.57-6.097s-3.595-2.477-3.735-5.015c-.404 2.175-.584 5.614.705 6.983.644-.323 1.66-1.405 3.03-1.968zm13.263 1.874c1.289-1.37 1.108-4.808.705-6.983-.14 2.539-3.736 5.015-3.736 5.015 1.37.564 2.386 1.646 3.03 1.968zM24.183.798c13.09 0 23.702 10.611 23.702 23.701S37.272 48.201 24.183 48.201C11.093 48.201.482 37.59.482 24.5S11.093.798 24.183.798zm21.702 23.701c0-11.966-9.736-21.7-21.702-21.7-11.966 0-21.701 9.734-21.701 21.7 0 11.967 9.735 21.702 21.701 21.702 11.966 0 21.702-9.735 21.702-21.702z"/></symbol>
<symbol id="icon_term" viewBox="0 0 100 100"><path fill="#323232" d="M24.023 39.333c-3.75 0-6.823-3.039-6.823-6.774 0-1.618.822-3.282 1.822-4.603v-14.84c0-2.73 2.244-4.95 5-4.95 2.757 0 5 2.22 5 4.95v14.91c1 1.284 1.778 2.893 1.778 4.533a6.775 6.775 0 01-6.777 6.774zm4.8-6.774c0-1.48-.755-2.827-1.755-3.715V13.115c0-1.625-1.374-2.949-3-2.949s-3 1.324-3 2.95V28.78c-1 .884-1.845 2.271-1.845 3.779 0 2.633 2.169 4.774 4.8 4.774 2.633 0 4.8-2.141 4.8-4.774zm-2.094-.14a2.774 2.774 0 11-5.548 0c0-1.216.786-2.237 1.873-2.612V12.975a.949.949 0 011.898 0v16.861a2.769 2.769 0 011.777 2.582zM32 15.998h4a1 1 0 010 2h-4a1 1 0 010-2zm0-4h4a1 1 0 010 2h-4a1 1 0 110-2zm0 8h4a1 1 0 010 2h-4a1 1 0 110-2zm0 4h4a1 1 0 110 2h-4a1 1 0 010-2zM24.184.8c13.09 0 23.702 10.61 23.702 23.7S37.272 48.201 24.183 48.201C11.093 48.201.482 37.59.482 24.5S11.093.8 24.183.8zm21.702 23.7c0-11.966-9.736-21.7-21.702-21.7-11.966 0-21.701 9.734-21.701 21.7 0 11.967 9.735 21.702 21.701 21.702 11.966 0 21.702-9.735 21.702-21.702z"/></symbol>
<symbol id="inst" viewBox="0 0 100 100"><path fill="#fff" d="M15.865.228c8.666 0 15.691 7.025 15.691 15.692 0 8.666-7.025 15.691-15.691 15.691S.173 24.586.173 15.92C.173 7.253 7.2.228 15.865.228zm6.271 23.61c.964 0 1.745-.781 1.745-1.745V9.783c0-.964-.781-1.746-1.745-1.746H9.81c-.964 0-1.745.782-1.745 1.745v12.311c0 .964.78 1.745 1.744 1.745zm.005-9.101v6.786a.611.611 0 01-.612.611H10.464a.611.611 0 01-.611-.611v-6.786h1.38a4.921 4.921 0 109.529 0c.882.002 1.379 0 1.379 0zm-6.143-1.605c1.567 0 3.066 1.144 3.066 2.838 0 1.693-1.499 2.839-3.066 2.839a2.839 2.839 0 010-5.677zm3.697-3.316h1.865a.61.61 0 01.611.611v1.865a.611.611 0 01-.611.61h-1.865a.611.611 0 01-.611-.61v-1.865a.61.61 0 01.611-.611z" opacity=".8"/></symbol>
<symbol id="logo" viewBox="0 0 100 100"><path fill="#fff" d="M153.827 52.85c-.45 6.77-5.747 11.1-12.885 11.1-6.872 0-10.002-3.162-10.002-6.1 0-1.621 1.247-2.834 2.48-3.194.181-.041.29-.055.385-.055.284 0 .445.129.531.237.21.264.141.568.052.951-.025.109-.054.234-.083.378-.181 1.02-.18 2.515.873 3.772 1.161 1.387 3.36 2.12 6.357 2.12 4.543 0 9.617-3.597 9.894-9.407.203-4.773-2.147-8.119-6.055-8.758a9.21 9.21 0 01.605 2.766c.17 2.587-.486 4.85-1.849 6.373-1.104 1.234-2.61 1.928-4.354 2.007-1.47.074-2.66-.424-3.51-1.394-.944-1.078-1.353-2.692-1.123-4.43.437-3.403 2.66-6.05 5.887-7.092-1.645-1.313-4.024-2.082-6.81-2.184-3.242-.13-6.064.543-8.432 1.97-1.207 7.44-3.689 16.015-6.778 16.015-.638 0-1.234-.395-1.677-1.114-1.042-1.694-1.26-5.306.722-9.24 1.48-2.913 3.18-5.055 5.192-6.54.256-2.357.447-4.803.566-7.296-.987 1.26-2.156 1.97-3.352 2.005-1.004 1.397-2.295 2.164-3.656 2.164-1.18 0-2.27-.486-3.153-1.405-1.316-1.372-1.987-3.498-1.886-5.987.168-4.01 1.809-7.015 4.39-8.038.528-.218 1.049-.064 1.25.34.565-.653 1.266-1.106 2.111-1.258.732-.13 1.418.166 1.986.819 1.185 1.358 1.643 3.973 1.227 6.995-.24 1.643-.612 3.068-1.113 4.254.934-.686 1.84-2.452 2.34-4.697.015-1.496.01-2.897-.017-4.281-.03-1.055.313-1.637.606-1.94.297-.304.69-.48 1.081-.48 1.084 0 1.137.627 1.137 1.732 0 .442.007.835.015 1.314.004.23.008.483.011.77 1.206-2.613 2.748-4.056 4.394-4.056.735 0 1.407.308 1.944.867 1.104 1.152 1.617 3.438 1.484 6.563-.28 5.664-3.5 8.248-6.567 8.248-.577 0-1.117-.003-1.635-.21-.057.678-.126 1.555-.21 2.224 2.473-1.057 5.341-1.058 8.836-.831 4.064.246 7.084 2.4 8.977 4.4h.236c2.775 0 5.261.225 7.003 2.08 1.858 1.979 2.772 4.393 2.575 7.523zm-38.854-22.807c-.1 2.02.382 3.792 1.286 4.741.257.27.671.592 1.183.592.28 0 .571-.088.858-.255-1.382-.895-2.366-2.73-2.586-4.92-.193-1.844-.007-3.813.58-5.412-.739 1.07-1.227 2.961-1.32 5.254zm4.96-5.112c-.054-.058-.132-.126-.203-.126-.849.244-1.915 2.415-1.79 4.938.062 1.413.556 3.196 1.727 3.916.432-.79.888-2.086 1.008-4.131.157-2.449-.274-4.099-.742-4.597zm11.389 5.143c.212-3.24-.2-4.915-.657-5.4-.123-.133-.21-.133-.244-.133-.64 0-2.695 2.878-3.748 9.673l-.064 1.027c.346.265.795.39 1.394.39 1.83 0 3.07-2.078 3.319-5.557zm-8.576 14.393a15.335 15.335 0 00-2.143 3.214c-1.78 3.56-1.704 6.02-1.219 6.806.088.142.183.22.28.232.584-.284 2.043-3.616 3.082-10.252zm20.878 2.765c-.075-1.258-.415-2.38-1.013-3.342-2.666.507-4.55 2.398-4.95 5.001-.218 1.304-.01 2.412.583 3.126.449.54 1.088.821 1.9.837l.107.002c.768 0 1.472-.317 2.038-.916.964-1.025 1.452-2.74 1.335-4.708zm-31.249-8.429c-.045.22-.271.773-1.482.624-2.446-.264-3.577-3.232-3.452-9.075.03-1.42.152-2.6.25-3.55.09-.882.193-1.88.06-2.078-.727.038-3.546 3.81-4.576 10.633-.049 1.73-1.027 2.208-1.596 2.208-1.038 0-1.222-.443-1.222-1.689 0-1.457.016-1.994.046-3.075.02-.716.047-1.67.08-3.298.075-2.74.25-5.39.522-7.89-1.378.234-2.875.249-4.374.04-4.264-.569-5.692-3.311-5.606-5.689.104-1.512 1.426-2.373 2.288-2.588a1.82 1.82 0 01.389-.052c.31 0 .47.159.54.253.206.285.108.583-.04 1.034l-.08.25a3.933 3.933 0 00.063 2.18c.123.274.387.66.833.66.309 0 .668-.184.984-.504.67-.678 1.062-1.828 1.047-3.075-.04-2.73-1.606-4.333-4.409-4.512a8.516 8.516 0 00-.539-.018c-2.528 0-5.252 1.275-5.637 4.125-.488 3.727 2.647 5.625 5.965 7.635l.375.227c3.42 2.11 7.043 4.754 6.772 9.45-.306 5.01-4.763 8.787-10.37 8.787-.694 0-1.398-.06-2.09-.179-6.885-1.188-9.051-6.531-8.814-10.745.106-1.517.587-3.64 2.284-5.178.597-.545 2.43-1.143 3.02-1.227.725-.106.911.207.987.381.187.43-.133.86-.507 1.26-1.964 1.923-2.827 3.435-3.093 5.41-.239 1.889.27 3.717 1.432 5.144 1.21 1.485 3.055 2.395 5.196 2.563 4.209.327 8.159-2.197 8.542-5.332.472-3.82-2.456-6.129-5.763-8.347l-.694-.457c-3.46-2.274-7.038-4.624-6.653-8.659.377-4.586 5.078-6.99 9.529-6.99.12 0 .242.001.36.005 2.282.085 4.101.812 5.264 2.1 1.043 1.158 1.532 2.714 1.413 4.499-.119 2.368-1.269 4.465-2.914 5.475.28.101.578.18.89.236a8.744 8.744 0 003.616-.078c1.204-8.835 3.717-14.522 6.433-14.522.62 0 1.209.407 1.662 1.147 1.173 1.913 1.408 5.72-.411 9.294-1.198 2.397-2.92 4.133-5.118 5.162a62.98 62.98 0 00-.461 6.926c1.437-3.125 3.5-5.731 5.643-5.731.511 0 .93.172 1.243.51.892.965.773 3.108.485 6.815-.534 6.513.196 8.186.902 8.443.86.381.819.909.786 1.062zm-5.814-23.384c1.457-2.914 1.273-5.64.816-6.673-.134-.304-.258-.399-.292-.409-.545.246-2.014 3.81-2.989 10.085 1.009-.737 1.835-1.744 2.465-3.003zm-28.25 7.64c.006 0-.336 3.471-.796 6.653-2.93 21.904-5.728 24.439-7.579 24.439-.624 0-1.176-.316-1.596-.911-1.087-1.544-1.112-4.671-.062-7.606a29.31 29.31 0 015.63-9.629l.03-.277c-.87 1.337-1.832 2.049-2.814 2.049-.987 0-2.657-.494-3.58-3.538-1.5 2.617-3.475 4.09-5.54 4.09-2.077 0-3.905-1.294-4.914-3.39-.8 1.927-1.91 3.771-3.23 3.771-1.081 0-1.912-1.272-2.296-3.415-.951 1.591-2.08 2.503-3.258 2.607a2.091 2.091 0 01-.17.007c-1.236 0-2.666-1.069-3.394-3.127-1.215 2.203-2.594 3.44-3.876 3.44-1.685 0-3.319-2.004-4.281-5.128-1.074 2.608-2.732 5.107-4.574 5.107-.703 0-1.424-.37-2.085-1.07-1.52-1.611-3.174-5.625-2.826-11.634.517-8.31 3.554-19.898 7.328-19.898.286 0 .701.094 1.057.541 1.293 1.628.768 7.124-.018 10.508-1.055 4.307-3.351 9.391-5.112 12.272.283 4.745 1.406 6.881 2.123 6.881.766 0 2.431-2.667 3.315-6.853a27.242 27.242 0 01-.058-4.036c.542-8.715 3.722-20.869 7.67-20.869.295 0 .723.097 1.09.56 1.352 1.702.8 7.462-.024 11.009-1.107 4.521-3.52 9.862-5.368 12.885.297 5.003 1.491 7.255 2.253 7.255.576 0 1.923-1.64 2.982-5.159.655-6.058 4.193-8.196 7.02-8.196 1.535 0 2.402.577 2.86 1.061.583.618.874 1.47.82 2.396-.13 1.005-1.649 1.89-2.4 2.031-.54.115-.805-.102-.896-.233-.222-.32-.095-.662.116-1.23l.05-.135c.278-.898.306-1.525.076-1.838-.162-.22-.501-.332-1.007-.332-1.654 0-3.04 2.295-3.45 5.711-.313 2.543.263 4.513.93 5.268.158.178.319.28.44.28.814 0 1.926-1.622 2.478-4.721l.025-.316c.02-.274.04-.53.102-.873.188-.974 1.313-1.416 2.279-1.416.42 0 .703.091.865.276l.15.173-.015.279c-.985 5.169-.671 7.092-.433 7.49.287-.26 1.015-1.47 1.901-4.94a12.534 12.534 0 01-.004-.94c.252-5.043 2.891-8.84 6.141-8.84.911 0 1.66.31 2.228.921 1.12 1.21 1.07 3.129 1.028 3.689-.132.998-1.654 1.798-2.4 1.938-.612.135-.815-.087-.904-.215-.204-.296-.088-.604.088-1.071l.085-.227c.38-1.07.556-2.458.154-3.028-.087-.123-.25-.286-.66-.286-1.271 0-2.392 2.901-2.554 6.605-.074 2.179.481 4.102 1.485 5.14.498.515 1.088.787 1.705.787 2.396 0 3.725-3.08 4.317-4.984-.144-1.94-.08-4.237.19-6.827.13-1.133 1.578-1.553 2.46-1.553.378 0 .624.08.775.255l.15.173-.017.271c-.842 6.682-.727 10.688.34 11.9.206.232.44.34.734.34.822 0 2.371-2.895 3.025-8.13.092-1.386.22-2.687.342-3.452.126-1.096 1.556-1.511 2.427-1.511.407 0 .67.092.823.288l.15.192zM33.18 16.753c.981-3.774.93-6.969.64-7.847-1.034 1.39-3.09 9.68-3.45 15.845 1.149-2.629 2.255-5.748 2.81-7.998zm8.938-1.017c1.052-4.048.977-7.436.656-8.3-1.088 1.36-3.303 10.257-3.662 16.827 1.226-2.789 2.415-6.13 3.006-8.527zm28.415 30.028c-.983 2.645-.834 4.303-.368 4.973.12.174.24.243.31.25.564-.227 1.79-3.454 2.905-11.133a35.709 35.709 0 00-2.847 5.91zm-8.737-1.136c.023.595-.137 1.457-1.029 2.182-.893.747-2.355 1.112-4.466 1.112-3.669 0-8.714-1.073-14.055-2.21-.98-.209-1.964-.419-2.939-.62-6.472-1.322-11.961-2.098-16.325-2.306-1.581 5.356-3.827 8.124-7.048 8.7a5.96 5.96 0 01-.968.08c-2.101 0-4.15-1.085-5.218-2.765-.863-1.355-.962-2.905-.28-4.364 1.182-2.63 4.497-3.857 10.427-3.857.348 0 .702.004 1.064.012.327-1.412.598-2.993.823-4.789-1.558 1.617-3.541 2.519-5.82 2.626l-.3.005c-2.537 0-4.752-.976-6.409-2.821-2.418-2.696-3.495-7.091-2.956-12.06.217-1.997.628-3.846 1.224-5.506-2.488-.592-4.532-1.867-5.665-3.549C.852 13.008.543 11.251.938 9.277 2.251 2.713 10.674.675 13.594.675c.518 0 .895.057 1.152.172.377.18 1.357.645 1.194 1.366-.093.413-.527.66-1.163.66-.312 0-.642-.061-.929-.17-.044-.017-.214-.07-.626-.07-2.142 0-8.658 1.602-9.576 6.507-.635 3.348 1.87 5.822 4.78 6.645 2.574-5.46 7.165-9.342 11.789-9.939 2.233-.3 4.05.296 4.95 1.636.716 1.067.787 2.507.195 3.949-1.536 3.77-7.85 6.777-14.472 6.93a25.262 25.262 0 00-1.078 4.793c-.58 4.72.25 8.866 2.215 11.088 1.081 1.222 2.454 1.841 4.082 1.842.092 0 .184-.002.277-.007 4.15-.202 5.55-4.45 6.016-6.963l.132-2.548c.078-2.123 1.386-2.288 1.785-2.288.317 0 1.22.133 1.22.727-.455 6.587-1.118 11.717-2.024 15.684 4.964.345 11.007 1.304 16.306 2.207 4.403.742 9.414 1.5 13.18 1.5 3.223 0 5.159-.546 5.755-1.622.12-.204.192-.359.245-.473.103-.223.26-.563.662-.563.246 0 .433.14.67.318.847.586 1.427 1.6 1.465 2.572zm-41.39-1.854c-5.089.084-6.813 1.12-7.354 1.998-.634 1.045-.719 2.143-.23 3.01.456.811 1.327 1.296 2.33 1.296.36 0 .727-.064 1.091-.19 1.72-.617 3.12-2.673 4.162-6.114zm-8.623-26.708c3.954-.314 8.695-2.295 10.004-5.04.4-.897.446-1.706.12-2.21-.331-.51-.997-.617-1.497-.617-.256 0-.537.028-.836.082-2.767.527-5.836 3.616-7.791 7.785z"/></symbol>
<symbol id="logo_ac" viewBox="0 0 100 100"><path fill="#fff" d="M44.6 27.283c.191 0 .381-.053.554-.104v1.33c-.346.139-.76.208-1.175.208-.76 0-1.366-.294-1.66-.968-.812.657-1.831 1.072-3.128 1.072-1.503 0-2.903-.83-2.903-2.54 0-2.126 1.97-2.783 3.698-2.783.71 0 1.504.103 2.16.242v-.294c0-1.037-.76-1.763-2.177-1.763a7.385 7.385 0 00-2.99.64v-1.694c.657-.225 1.85-.553 3.18-.553 2.35 0 3.837 1.123 3.837 3.63v2.972c0 .466.277.605.605.605.328 0 0 0 0 0zm-6.411-1.124c0 .812.726 1.227 1.555 1.227.882 0 1.746-.328 2.403-.985v-1.4c-.501-.103-1.21-.207-1.798-.207-1.054 0-2.16.328-2.16 1.365zm12.305-6.083c.933 0 1.832.207 2.558.64v1.693c-.605-.432-1.452-.691-2.299-.691-1.468 0-2.955.777-2.955 2.73 0 1.884 1.434 2.73 2.92 2.73a4.99 4.99 0 002.42-.638v1.71c-.795.38-1.693.57-2.748.57-2.212 0-4.476-1.347-4.476-4.302 0-3.094 2.368-4.442 4.58-4.442m12.115 7.207c.19 0 .38-.053.553-.104v1.33a3.21 3.21 0 01-1.175.208c-.76 0-1.365-.294-1.66-.968-.811.657-1.831 1.072-3.127 1.072-1.504 0-2.904-.83-2.904-2.54 0-2.126 1.97-2.783 3.699-2.783.708 0 1.503.103 2.16.242v-.294c0-1.037-.76-1.763-2.178-1.763a7.386 7.386 0 00-2.99.64v-1.694c.658-.225 1.85-.553 3.18-.553 2.35 0 3.837 1.123 3.837 3.63v2.972c0 .466.277.605.605.605.328 0 0 0 0 0zm-6.412-1.124c0 .812.726 1.227 1.556 1.227.881 0 1.745-.328 2.402-.985v-1.4c-.501-.103-1.21-.207-1.797-.207-1.055 0-2.16.328-2.16 1.365zm16.678-9.66v12.097h-1.66v-1.313c-.639.812-1.624 1.538-3.179 1.538-2.506 0-4.113-1.988-4.113-4.373 0-2.385 1.607-4.372 4.113-4.372 1.452 0 2.42.64 2.99 1.296v-4.874zm-4.51 5.201c-1.487 0-2.576 1.124-2.576 2.748 0 1.625 1.089 2.748 2.575 2.748 1.297 0 2.247-.83 2.644-1.745v-2.023c-.397-.898-1.347-1.728-2.644-1.728-1.296 0 0 0 0 0zm10.507-1.624c3.301 0 4.442 2.661 3.906 5.063h-6.239c.208 1.487 1.66 2.109 3.18 2.109a6.076 6.076 0 002.627-.588v1.59c-.76.364-1.815.57-2.973.57-2.54 0-4.7-1.45-4.7-4.372 0-3.007 2.28-4.372 4.2-4.372 1.917 0 0 0 0 0zm.087 1.538c-1.245 0-2.368.743-2.437 2.143h4.597c.104-.726-.346-2.143-2.16-2.143-1.815 0 0 0 0 0zm5.703 6.982v-8.295h1.642v1.036c.45-.5 1.417-1.261 2.765-1.261 1.244 0 2.108.518 2.592 1.33.726-.725 1.694-1.33 2.904-1.33 2.194 0 3.145 1.624 3.145 3.335v5.185h-1.85v-5.133c0-1.072-.639-1.745-1.641-1.745-.916 0-1.625.604-2.056 1.123.017.19.034.38.034.57v5.185h-1.85v-5.133c0-1.072-.639-1.745-1.641-1.745s-1.763.725-2.195 1.279v5.599zm21.206-8.296h1.935l-3.888 9.42c-.9 2.16-2.074 2.886-3.336 2.886-.362 0-.725-.052-1.089-.138v-1.573c.277.086.57.12.847.12.899 0 1.573-.64 2.057-1.935l.173-.415-3.94-8.365h1.97l2.8 6.257zM38.734 1.974V6.69a3.776 3.776 0 012.678-1.14c2.091 0 3.422 1.417 3.422 3.387v5.133h-1.849V9.18c0-1.349-.83-1.988-1.935-1.988-1.055 0-1.85.708-2.316 1.382v5.496h-1.85V1.974zm11.164.846v2.955h3.007V7.4h-3.007v3.802c0 1.09.501 1.452 1.573 1.452.605 0 1.158-.121 1.676-.328v1.59c-.622.224-1.417.363-2.229.363-1.608 0-2.852-.795-2.852-2.731V7.4H46.58V5.775h1.486V3.27zm5.374 11.251V5.775h1.642v1.038c.45-.502 1.417-1.262 2.765-1.262 1.245 0 2.109.518 2.593 1.33.725-.725 1.693-1.33 2.903-1.33 2.195 0 3.146 1.624 3.146 3.335v5.185h-1.85V8.938c0-1.071-.64-1.745-1.642-1.745-.915 0-1.624.605-2.056 1.123.017.19.035.38.035.57v5.185h-1.85V8.938c0-1.071-.64-1.745-1.642-1.745-1.002 0-1.763.726-2.195 1.279v5.6zM71.026 1.974h1.849V14.07h-1.85zm-41.87.075v26.548L14.67 37.215.187 28.597V2.049L14.671.531l.152.016zM27.26 16.455l-3.884 2.32v4.288l.01-.007v1.319L14.67 29.59l-8.633-5.189.012-1.312 8.631 5.134-.021-1.388-8.634-5.189.013-1.313 8.6 5.118-.022-1.352-12.535-7.46v10.88l12.59 7.491 12.589-7.49zM14.6 7.671L2.108 15.177l12.473 7.415 2.133-1.28-2.094-1.234.013-1.312 3.19 1.88.024-.015.997-.667-4.224-2.511.013-1.313 5.35 3.183.921-.542.14-.083.057-.033-6.48-3.855.012-1.312 7.582 4.51 1.59-.936 3.444-2.03zm12.66-3.915l-12.59-1.32-12.59 1.32v9.958L14.6 6.261V6.26h.002v.001l12.658 7.462z"/></symbol>
<symbol id="pin" viewBox="0 0 100 100"><path fill="#e84d37" d="M62.534 75.848c.24 0 .477-.006.714-.015L41.881 136.71c-.609 1.734-1.41 2.6-2.212 2.6-.802 0-1.604-.866-2.212-2.6L16.06 75.75a15.927 15.927 0 005.609-1.695c.6.68 1.247 1.31 1.932 1.89l.041.04.004-.003a18.763 18.763 0 002.409 1.72l-.348.348 3.277 3.277 1.65-1.648c1.137.319 2.308.532 3.5.629l-3.085 3.085 3.278 3.277 3.277-3.277-3.056-3.057a18.475 18.475 0 003.943-.187l1.178 1.178 1.945-1.945a18.532 18.532 0 004.537-2.274 18.727 18.727 0 005.024-5.122c.539.417 1.098.802 1.675 1.154l2.845 2.845 1.05-1.05c1.846.6 3.795.913 5.79.913zM47.076 78.05l3.277 3.277 3.278-3.277-3.278-3.277zm-5.342 5.343l3.277 3.277 3.278-3.277-3.278-3.278zm-2.065 19.303l3.277-3.277-3.277-3.278-3.278 3.278zm0 4.13l-3.278 3.277 3.278 3.278 3.277-3.278zm5.342-9.472l3.277-3.278-3.277-3.277-3.277 3.277zm-8.62-8.62l3.278 3.278 3.277-3.278-3.277-3.277zM34.327 90.8l-3.278 3.277 3.278 3.278 3.277-3.278zm-9.308-5.507l1.9-1.9-3.277-3.277-.326.325zm1.49 4.245l2.475 2.475 3.278-3.278-3.278-3.277-2.892 2.892zm4.062 11.573l1.69-1.691-3.277-3.278-.116.116zm3.756 6.929l3.277-3.278-3.277-3.277-2.683 2.682.644 1.833zm1.796 8.888l1.481-1.482-3.083-3.083zm6.019 3.056l-2.473-2.473-2.473 2.473 2.473 7.046zm2.675-7.62l-3.083 3.082 1.48 1.482zm2.877-8.197l-2.683-2.682-3.277 3.277 3.277 3.278L47.05 106zm2.776-7.908l-.117-.117-3.277 3.278 1.69 1.69zm2.775-7.909l-2.892-2.892-3.277 3.277 3.277 3.278 2.476-2.475zm2.776-7.908l-.326-.326-3.277 3.278 1.9 1.9zm23.095-23.195c0 9.151-7.445 16.596-16.596 16.596a16.482 16.482 0 01-11.51-4.637 35.05 35.05 0 01-.669.219 16.58 16.58 0 01-5.34 6.03 16.506 16.506 0 01-9.387 2.908c-5.416 0-10.414-2.66-13.484-6.923a13.959 13.959 0 01-7.879 2.403C6.5 73.842.192 67.535.192 59.783a14.08 14.08 0 016.425-11.806A34.968 34.968 0 014.463 35.82c0-9.414 3.665-18.264 10.321-24.92C21.441 4.244 30.291.578 39.704.578c9.413 0 18.263 3.666 24.92 10.322 6.656 6.656 10.321 15.506 10.321 24.92 0 3.124-.406 6.207-1.211 9.191a16.597 16.597 0 015.382 12.235zm-6.287 0c0-3.405-1.681-6.589-4.497-8.516a3.143 3.143 0 01-1.201-3.603 28.908 28.908 0 001.527-9.307c0-7.734-3.012-15.006-8.48-20.474-5.47-5.469-12.74-8.48-20.474-8.48s-15.005 3.011-20.474 8.48c-5.469 5.468-8.48 12.74-8.48 20.474 0 4.306.923 8.45 2.745 12.319a3.143 3.143 0 01-1.807 4.307 7.78 7.78 0 00-5.209 7.337c0 4.285 3.487 7.772 7.772 7.772a7.718 7.718 0 006.206-3.094 3.144 3.144 0 015.463.822 10.342 10.342 0 009.694 6.792 10.27 10.27 0 009.56-6.445 3.144 3.144 0 012.095-1.856 28.893 28.893 0 003.442-1.167 3.143 3.143 0 013.675.973 10.255 10.255 0 008.134 3.975c5.684 0 10.309-4.625 10.309-10.31z"/></symbol>
<symbol id="search" viewBox="0 0 100 100"><path fill="#fff" d="M16.917 15.515l-1.423 1.422-4.773-4.76v-.755l-.263-.262A6.202 6.202 0 01.218 6.455 6.201 6.201 0 016.424.258a6.203 6.203 0 016.206 6.199c0 1.54-.566 2.946-1.497 4.03l.264.261h.758zm-6.197-9.06a4.294 4.294 0 00-4.296-4.29 4.294 4.294 0 00-4.297 4.29 4.294 4.294 0 004.297 4.292 4.294 4.294 0 004.296-4.291z"/></symbol>
<symbol id="twitter" viewBox="0 0 100 100"><path fill="#fff" d="M16.427.165c8.667 0 15.692 7.026 15.692 15.692S25.094 31.55 16.427 31.55C7.761 31.549.736 24.523.736 15.857S7.76.165 16.427.165zm9.138 10.81a7.294 7.294 0 01-2.092.574 3.654 3.654 0 001.601-2.015 7.278 7.278 0 01-2.313.884 3.642 3.642 0 00-6.207 3.322 10.34 10.34 0 01-7.507-3.806 3.64 3.64 0 001.127 4.863 3.626 3.626 0 01-1.649-.455v.046a3.645 3.645 0 002.921 3.571 3.665 3.665 0 01-1.645.062 3.645 3.645 0 003.403 2.53 7.306 7.306 0 01-5.392 1.508 10.307 10.307 0 005.583 1.636c6.7 0 10.363-5.55 10.363-10.363 0-.158-.004-.315-.01-.47a7.405 7.405 0 001.817-1.886z" opacity=".8"/></symbol>
<symbol id="vk" viewBox="0 0 100 100"><path fill="#fff" d="M15.865.228c8.666 0 15.691 7.025 15.691 15.692 0 8.666-7.025 15.691-15.691 15.691S.173 24.586.173 15.92C.173 7.253 7.2.228 15.865.228zm5.21 16.049c-.504-.546-1.178-.905-2.016-1.082v-.072a2.937 2.937 0 001.371-1.144c.333-.517.499-1.106.499-1.77 0-.574-.122-1.079-.362-1.518a2.633 2.633 0 00-1.09-1.05 4.303 4.303 0 00-1.447-.477c-.514-.078-1.272-.115-2.269-.115h-4.803v13.596H16.4c.944 0 1.72-.085 2.331-.256a4.794 4.794 0 001.686-.857 3.637 3.637 0 001.032-1.268c.256-.513.384-1.107.384-1.784 0-.923-.253-1.657-.758-2.203zm-3.615-3.382c0 .296-.054.558-.157.786-.102.223-.292.401-.563.53-.25.114-.493.177-.726.19-.235.012-.646.018-1.229.018h-.43v-2.877h.237c.608 0 1.066.003 1.375.012.308.01.573.062.797.163.24.102.415.271.527.501.113.23.169.456.169.677zm.642 6.402a1.362 1.362 0 01-.68.59 2.882 2.882 0 01-1.04.245c-.34.013-.955.02-1.843.02h-.184v-3.405h.63c.608 0 1.094.003 1.456.013.361.008.647.052.853.134.34.121.596.299.767.539.172.237.255.564.255.985 0 .327-.07.62-.214.88z" opacity=".8"/></symbol>
</svg>