<svg xmlns="http://www.w3.org/2000/svg" width="48" height="49" viewBox="0 0 48 49"><g><g><path fill="#323232" d="M24.023 39.333c-3.75 0-6.823-3.039-6.823-6.774 0-1.618.822-3.282 1.822-4.603v-14.84c0-2.73 2.244-4.95 5-4.95 2.757 0 5 2.22 5 4.95v14.91c1 1.284 1.778 2.893 1.778 4.533a6.775 6.775 0 0 1-6.777 6.774zm4.8-6.774c0-1.48-.755-2.827-1.755-3.715V13.115c0-1.625-1.374-2.949-3-2.949s-3 1.324-3 2.95V28.78c-1 .884-1.845 2.271-1.845 3.779 0 2.633 2.169 4.774 4.8 4.774 2.633 0 4.8-2.141 4.8-4.774zm-2.094-.14a2.774 2.774 0 1 1-5.548 0c0-1.216.786-2.237 1.873-2.612V12.975a.949.949 0 0 1 1.898 0v16.861a2.769 2.769 0 0 1 1.777 2.582zM32 15.998h4a1 1 0 0 1 0 2h-4a1 1 0 0 1 0-2zm0-4h4a1 1 0 0 1 0 2h-4a1 1 0 1 1 0-2zm0 8h4a1 1 0 0 1 0 2h-4a1 1 0 1 1 0-2zm0 4h4a1 1 0 1 1 0 2h-4a1 1 0 0 1 0-2zM24.184.8c13.09 0 23.702 10.61 23.702 23.7S37.272 48.201 24.183 48.201C11.093 48.201.482 37.59.482 24.5.482 11.41 11.093.8 24.183.8zm21.702 23.7c0-11.966-9.736-21.7-21.702-21.7-11.966 0-21.701 9.734-21.701 21.7 0 11.967 9.735 21.702 21.701 21.702 11.966 0 21.702-9.735 21.702-21.702z"/></g></g></svg>