<svg xmlns="http://www.w3.org/2000/svg" width="32" height="32"><path fill="#fff" d="M16.427.165c8.667 0 15.692 7.026 15.692 15.692S25.094 31.55 16.427 31.55C7.761 31.549.736 24.523.736 15.857S7.76.165 16.427.165zm9.138 10.81a7.294 7.294 0 01-2.092.574 3.654 3.654 0 001.601-2.015 7.278 7.278 0 01-2.313.884 3.642 3.642 0 00-6.207 3.322 10.34 10.34 0 01-7.507-3.806 3.64 3.64 0 001.127 4.863 3.626 3.626 0 01-1.649-.455v.046a3.645 3.645 0 002.921 3.571 3.665 3.665 0 01-1.645.062 3.645 3.645 0 003.403 2.53 7.306 7.306 0 01-5.392 1.508 10.307 10.307 0 005.583 1.636c6.7 0 10.363-5.55 10.363-10.363 0-.158-.004-.315-.01-.47a7.405 7.405 0 001.817-1.886z" opacity=".8"/></svg>