<svg xmlns="http://www.w3.org/2000/svg" width="32" height="32"><path fill="#fff" d="M15.865.228c8.666 0 15.691 7.025 15.691 15.692 0 8.666-7.025 15.691-15.691 15.691S.173 24.586.173 15.92C.173 7.253 7.2.228 15.865.228zm5.21 16.049c-.504-.546-1.178-.905-2.016-1.082v-.072a2.937 2.937 0 001.371-1.144c.333-.517.499-1.106.499-1.77 0-.574-.122-1.079-.362-1.518a2.633 2.633 0 00-1.09-1.05 4.303 4.303 0 00-1.447-.477c-.514-.078-1.272-.115-2.269-.115h-4.803v13.596H16.4c.944 0 1.72-.085 2.331-.256a4.794 4.794 0 001.686-.857 3.637 3.637 0 001.032-1.268c.256-.513.384-1.107.384-1.784 0-.923-.253-1.657-.758-2.203zm-3.615-3.382c0 .296-.054.558-.157.786-.102.223-.292.401-.563.53-.25.114-.493.177-.726.19-.235.012-.646.018-1.229.018h-.43v-2.877h.237c.608 0 1.066.003 1.375.012.308.01.573.062.797.163.24.102.415.271.527.501.113.23.169.456.169.677zm.642 6.402a1.362 1.362 0 01-.68.59 2.882 2.882 0 01-1.04.245c-.34.013-.955.02-1.843.02h-.184v-3.405h.63c.608 0 1.094.003 1.456.013.361.008.647.052.853.134.34.121.596.299.767.539.172.237.255.564.255.985 0 .327-.07.62-.214.88z" opacity=".8"/></svg>